<svg xmlns="http://www.w3.org/2000/svg" width="77.626" height="77.626" viewBox="0 0 77.626 77.626"><defs><style>.a{fill:#2dce98;}.b{fill:#fff;}</style></defs><g transform="translate(-1.977 -1.977)"><path class="a" d="M79.6,40.79A38.813,38.813,0,1,0,40.79,79.6,38.817,38.817,0,0,0,79.6,40.79Zm0,0"/><path class="b" d="M72.419,42.1c-.907-2.364-2.767-1.987-4.786-1.582-1.205.252-6.571,1.816-15.033,10.763a72.243,72.243,0,0,0-7.37,8.917A45.855,45.855,0,0,0,42.1,56.711a44.958,44.958,0,0,0-7.478-5.928,3.441,3.441,0,0,0-3.6,5.867,37.541,37.541,0,0,1,6.194,4.928,53.25,53.25,0,0,1,5.586,6.9,3.426,3.426,0,0,0,2.862,1.533,3.933,3.933,0,0,0,.6-.046A3.429,3.429,0,0,0,49,67.413c.015-.032,1.376-3.8,8.556-11.374,5.788-6.116,9.653-8.057,11-8.59H68.6a.673.673,0,0,0,.125-.061,2.75,2.75,0,0,1,.359-.125.448.448,0,0,1-.093.015v-.015c.626-.266,1.782-.768,1.8-.782A3.268,3.268,0,0,0,72.419,42.1Zm0,0" transform="translate(-10.26 -14.311)"/></g></svg>