<svg xmlns="http://www.w3.org/2000/svg" width="34.338" height="20.57" viewBox="0 0 34.338 20.57"><defs><style>.a{fill:#ffb600;}.b{fill:#f7981d;}.c{fill:#ff8500;}.d{fill:#ff5050;}.e{fill:#e52836;}.f{fill:#cb2026;}.g{fill:#fff;}.h{fill:#dce5e5;}</style></defs><g transform="translate(0.345 -100.799)"><path class="a" d="M222.17,111.084a10.285,10.285,0,0,1-20.57,0h0a10.285,10.285,0,0,1,20.57,0Z" transform="translate(-188.177)"/><path class="b" d="M211.885,100.8a10.312,10.312,0,0,1,10.285,10.285h0a10.285,10.285,0,1,1-20.57,0" transform="translate(-188.177 -0.001)"/><path class="c" d="M352.8,100.8a10.312,10.312,0,0,1,10.285,10.285h0A10.277,10.277,0,0,1,352.8,121.37" transform="translate(-329.092 -0.001)"/><path class="d" d="M9.886,100.8a10.285,10.285,0,1,0,.109,20.57,10.4,10.4,0,0,0,6.911-2.667h0a9.778,9.778,0,0,0,1.034-1.088H15.818a12.553,12.553,0,0,1-.762-1.034H18.7a6.971,6.971,0,0,0,.6-1.088H14.457a6.486,6.486,0,0,1-.435-1.088h5.659a10.805,10.805,0,0,0,.544-3.265,14.047,14.047,0,0,0-.218-2.177H13.7a7.955,7.955,0,0,1,.272-1.088h5.659a6.486,6.486,0,0,0-.435-1.088H14.4A10.792,10.792,0,0,1,15,105.7h3.646a5.175,5.175,0,0,0-.816-1.088H15.818a9.275,9.275,0,0,1,1.034-1.034,10.042,10.042,0,0,0-6.911-2.667C9.94,100.8,9.94,100.8,9.886,100.8Z" transform="translate(0 -0.001)"/><path class="e" d="M0,112.574a10.277,10.277,0,0,0,10.285,10.285,10.4,10.4,0,0,0,6.911-2.667h0A9.778,9.778,0,0,0,18.23,119.1H16.108a12.551,12.551,0,0,1-.762-1.034h3.646a6.97,6.97,0,0,0,.6-1.088H14.747a6.486,6.486,0,0,1-.435-1.088h5.659a10.805,10.805,0,0,0,.544-3.265,14.046,14.046,0,0,0-.218-2.177H13.985a7.956,7.956,0,0,1,.272-1.088h5.659a6.486,6.486,0,0,0-.435-1.088H14.693a10.792,10.792,0,0,1,.6-1.088h3.646a5.175,5.175,0,0,0-.816-1.088H16.108a9.274,9.274,0,0,1,1.034-1.034,10.042,10.042,0,0,0-6.911-2.667h-.054" transform="translate(-0.29 -1.489)"/><path class="f" d="M149.709,122.859a10.4,10.4,0,0,0,6.911-2.667h0a9.781,9.781,0,0,0,1.034-1.088h-2.122a12.554,12.554,0,0,1-.762-1.034h3.646a6.972,6.972,0,0,0,.6-1.088h-4.843a6.488,6.488,0,0,1-.435-1.088h5.659a10.806,10.806,0,0,0,.544-3.265,14.043,14.043,0,0,0-.218-2.177h-6.312a7.952,7.952,0,0,1,.272-1.088h5.659a6.484,6.484,0,0,0-.435-1.088h-4.789a10.791,10.791,0,0,1,.6-1.088h3.646a5.176,5.176,0,0,0-.816-1.088h-2.013a9.275,9.275,0,0,1,1.034-1.034,10.042,10.042,0,0,0-6.911-2.667H149.6" transform="translate(-139.714 -1.489)"/><g transform="translate(0.689 108.418)"><path class="g" d="M183.179,224.79l.163-.925a2.359,2.359,0,0,1-.272.054c-.381,0-.435-.218-.381-.326l.326-1.9h.6l.163-1.034h-.544l.109-.653h-1.088s-.653,3.592-.653,4.027a.817.817,0,0,0,.87.925A1.671,1.671,0,0,0,183.179,224.79Z" transform="translate(-170.228 -219.511)"/><path class="g" d="M210.4,231.156a1.731,1.731,0,0,0,1.9,1.9,2.824,2.824,0,0,0,1.143-.163l.218-1.034a3.262,3.262,0,0,1-1.143.272c-1.2,0-.979-.87-.979-.87h2.231a7.055,7.055,0,0,0,.163-.979,1.474,1.474,0,0,0-1.578-1.578C211.216,228.6,210.4,229.8,210.4,231.156Zm1.9-1.578c.6,0,.491.707.491.762h-1.2c0-.054.108-.762.707-.762Z" transform="translate(-197.068 -227.619)"/><path class="g" d="M298.993,218.079l.218-1.2a2.674,2.674,0,0,1-.925.272c-.762,0-1.088-.6-1.088-1.252,0-1.306.653-2.014,1.415-2.014a1.817,1.817,0,0,1,.979.326l.163-1.143a3.826,3.826,0,0,0-1.252-.272c-1.252,0-2.5,1.088-2.5,3.156,0,1.361.653,2.285,1.959,2.285a4.884,4.884,0,0,0,1.034-.163Z" transform="translate(-276.845 -212.8)"/><path class="g" d="M88.464,227.2a3.854,3.854,0,0,0-1.306.218l-.163.925a3.216,3.216,0,0,1,1.2-.218c.381,0,.707.054.707.381,0,.218-.054.272-.054.272h-.491c-.925,0-1.959.381-1.959,1.632,0,.979.653,1.2,1.034,1.2a1.634,1.634,0,0,0,1.143-.491l-.054.435h.98l.435-2.993A1.289,1.289,0,0,0,88.464,227.2Zm.218,2.449c0,.163-.109,1.034-.762,1.034a.425.425,0,0,1-.435-.435c0-.272.163-.653.979-.653a.858.858,0,0,0,.218.054Z" transform="translate(-81.498 -226.22)"/><path class="g" d="M136.454,230.857a1.4,1.4,0,0,0,1.632-1.415c0-1.361-1.306-1.088-1.306-1.632,0-.272.218-.381.6-.381.163,0,.762.054.762.054l.163-.979a4.134,4.134,0,0,0-1.034-.109c-.816,0-1.632.326-1.632,1.415,0,1.252,1.361,1.143,1.361,1.632,0,.326-.381.381-.653.381a3.559,3.559,0,0,1-.979-.163l-.163.979C135.257,230.748,135.529,230.857,136.454,230.857Z" transform="translate(-126.985 -225.47)"/><path class="g" d="M430.3,214.4l-.218,1.469a1.509,1.509,0,0,0-1.034-.544c-.979,0-1.85,1.2-1.85,2.612,0,.87.435,1.8,1.361,1.8a1.453,1.453,0,0,0,1.034-.435l-.054.381h1.088l.816-5.224Zm-.491,2.884c0,.6-.272,1.361-.87,1.361-.381,0-.6-.326-.6-.87,0-.87.381-1.415.87-1.415.382,0,.6.271.6.924Z" transform="translate(-399.118 -214.291)"/><path class="g" d="M15.434,219.624l.653-3.918.109,3.918h.762l1.415-3.918-.6,3.918h1.143l.87-5.224h-1.8L16.9,217.611l-.054-3.211H15.27l-.87,5.224Z" transform="translate(-14.4 -214.291)"/><path class="g" d="M261.2,233.044c.327-1.8.381-3.265,1.143-2.993a4.272,4.272,0,0,1,.381-1.252H262.5c-.491,0-.87.653-.87.653l.109-.6h-1.034L260,233.1h1.2Z" transform="translate(-243.294 -227.712)"/><path class="g" d="M348.464,227.2a3.855,3.855,0,0,0-1.306.218l-.163.925a3.216,3.216,0,0,1,1.2-.218c.381,0,.707.054.707.381,0,.218-.054.272-.054.272h-.491c-.925,0-1.959.381-1.959,1.632,0,.979.653,1.2,1.034,1.2a1.634,1.634,0,0,0,1.143-.491l-.054.435h.98l.435-2.993A1.27,1.27,0,0,0,348.464,227.2Zm.272,2.449c0,.163-.109,1.034-.762,1.034a.425.425,0,0,1-.435-.435c0-.272.163-.653.979-.653.163.054.163.054.218.054Z" transform="translate(-323.812 -226.22)"/><path class="g" d="M395.6,233.044c.326-1.8.381-3.265,1.143-2.993a4.271,4.271,0,0,1,.381-1.252H396.9c-.491,0-.87.653-.87.653l.109-.6h-1.034L394.4,233.1h1.2Z" transform="translate(-368.551 -227.712)"/></g><g transform="translate(0.689 108.418)"><path class="h" d="M180,224.028a.817.817,0,0,0,.87.925,2.072,2.072,0,0,0,.816-.163l.163-.925a2.359,2.359,0,0,1-.272.054c-.381,0-.435-.218-.381-.326l.327-1.9h.6l.163-1.034h-.544l.109-.653" transform="translate(-168.736 -219.511)"/><path class="h" d="M218.4,231.156c0,1.524.491,1.9,1.361,1.9a2.824,2.824,0,0,0,1.143-.163l.218-1.034a3.262,3.262,0,0,1-1.143.272c-1.2,0-.979-.87-.979-.87h2.231a7.053,7.053,0,0,0,.163-.979,1.474,1.474,0,0,0-1.578-1.578C218.672,228.6,218.4,229.8,218.4,231.156Zm1.361-1.578c.6,0,.707.707.707.762h-1.415c0-.054.109-.762.707-.762Z" transform="translate(-204.523 -227.619)"/><path class="h" d="M306.449,218.079l.218-1.2a2.674,2.674,0,0,1-.925.272c-.762,0-1.088-.6-1.088-1.252,0-1.306.653-2.014,1.415-2.014a1.817,1.817,0,0,1,.979.326l.163-1.143a3.827,3.827,0,0,0-1.252-.272c-1.252,0-1.959,1.088-1.959,3.156,0,1.361.109,2.285,1.415,2.285A4.883,4.883,0,0,0,306.449,218.079Z" transform="translate(-284.301 -212.8)"/><path class="h" d="M86.994,229.883a3.217,3.217,0,0,1,1.2-.218c.381,0,.707.054.707.381,0,.218-.054.272-.054.272h-.491c-.925,0-1.959.381-1.959,1.632,0,.979.653,1.2,1.034,1.2a1.634,1.634,0,0,0,1.143-.491l-.054.435h.98l.435-2.993c0-1.252-1.088-1.306-1.524-1.306m.816,2.34a1.781,1.781,0,0,1-1.306,1.034.425.425,0,0,1-.435-.435c0-.272.163-.653.979-.653a4.446,4.446,0,0,0,.763.055Z" transform="translate(-81.498 -227.707)"/><path class="h" d="M136,230.749a4.6,4.6,0,0,0,1.252.109,1.4,1.4,0,0,0,1.632-1.415c0-1.361-1.306-1.088-1.306-1.632,0-.272.218-.381.6-.381.163,0,.762.054.762.054l.163-.979a4.134,4.134,0,0,0-1.034-.109c-.816,0-1.088.326-1.088,1.415,0,1.252.816,1.143.816,1.632,0,.326-.381.381-.653.381" transform="translate(-127.728 -225.471)"/><path class="h" d="M437.486,216.615a1.509,1.509,0,0,0-1.034-.544c-.979,0-1.306,1.2-1.306,2.612,0,.87-.109,1.8.816,1.8a1.453,1.453,0,0,0,1.034-.435l-.054.381h1.088l.816-5.224m-1.415,2.83c0,.6-.491,1.361-1.088,1.361-.381,0-.6-.326-.6-.87,0-.87.381-1.415.87-1.415A.831.831,0,0,1,437.431,218.03Z" transform="translate(-406.522 -215.037)"/><path class="h" d="M15.434,219.624l.653-3.918.109,3.918h.762l1.415-3.918-.6,3.918h1.143l.87-5.224H18.426L16.9,217.611l-.054-3.211h-.6l-1.85,5.224Z" transform="translate(-14.4 -214.291)"/><path class="h" d="M260.8,233.044h1.143c.326-1.8.381-3.265,1.143-2.993a4.272,4.272,0,0,1,.381-1.252h-.218c-.491,0-.87.653-.87.653l.109-.6" transform="translate(-244.039 -227.712)"/><path class="h" d="M346.994,229.883a3.217,3.217,0,0,1,1.2-.218c.381,0,.707.054.707.381,0,.218-.054.272-.054.272h-.491c-.925,0-1.959.381-1.959,1.632,0,.979.653,1.2,1.034,1.2a1.634,1.634,0,0,0,1.143-.491l-.054.435h.98l.435-2.993c0-1.252-1.088-1.306-1.524-1.306m.816,2.34a1.781,1.781,0,0,1-1.306,1.034.425.425,0,0,1-.435-.435c0-.272.163-.653.979-.653a4.785,4.785,0,0,0,.763.055Z" transform="translate(-323.812 -227.707)"/><path class="h" d="M395.2,233.045h1.143c.326-1.8.381-3.265,1.143-2.993a4.271,4.271,0,0,1,.381-1.252h-.218c-.49,0-.87.653-.87.653l.109-.6" transform="translate(-369.297 -227.712)"/></g></g></svg>