<svg xmlns="http://www.w3.org/2000/svg" width="15.505" height="11.387" viewBox="0 0 15.505 11.387"><defs><style>.a{fill:#8898aa;}</style></defs><g transform="translate(0 -68)"><g transform="translate(0 68)"><g transform="translate(0 0)"><path class="a" d="M13.688,68H1.817A1.819,1.819,0,0,0,0,69.817V77.57a1.819,1.819,0,0,0,1.817,1.817H13.688a1.819,1.819,0,0,0,1.817-1.817V69.817A1.819,1.819,0,0,0,13.688,68Zm.606,9.57a.606.606,0,0,1-.606.606H1.817a.606.606,0,0,1-.606-.606V72.421H14.294Zm0-6.965H1.211v-.787a.606.606,0,0,1,.606-.606H13.688a.606.606,0,0,1,.606.606Z" transform="translate(0 -68)"/></g></g><g transform="translate(2.41 73.623)"><g transform="translate(0 0)"><rect class="a" width="8" transform="translate(-0.41 0.377)"/></g></g></g></svg>